<svg width="705" height="722" viewBox="0 0 705 722" fill="none" xmlns="http://www.w3.org/2000/svg">
<path opacity="0.139718" fill-rule="evenodd" clip-rule="evenodd" d="M1.07453 209.095C0.278957 211.776 0.00652107 236.79 0 269.56V272.151C0.0137667 339.61 1.09699 566.45 1.07598 572.069C0.949178 605.416 20.7884 640.422 70.5558 674.654C143.48 724.817 197.599 705.026 250.092 693.101C293.713 683.193 334.829 673.284 381 699C482.734 755.664 552.729 695.831 659.732 625.074C688.187 606.257 701.611 583.995 703.166 559.937C703.572 553.672 704.473 480.502 704.481 414.577V412.696C704.475 360.556 703.899 313.407 702.064 308.168C681.698 250.027 602.602 260.093 511.255 211.127C412.946 158.429 324.03 127.957 245.133 127.962C201.631 127.964 161.164 137.231 123.871 157.145C67.9662 186.998 14.8115 162.851 1.07453 209.095Z" fill="url(#paint0_linear)"/>
<path fill-rule="evenodd" clip-rule="evenodd" d="M659.732 392.199C552.73 462.956 484.737 401.757 383.003 345.093C281.269 288.429 204.079 404.727 70.5554 312.88C-62.9692 221.033 18.9434 123.628 123.871 67.5958C228.799 11.5634 358.741 39.8239 511.255 121.578C661.188 201.947 766.735 321.442 659.732 392.199Z" fill="#C59FFF"/>
<path fill-rule="evenodd" clip-rule="evenodd" d="M241.283 228.197C241.485 231.385 245.735 233.61 245.735 233.61L442.314 342.834C442.314 342.834 447.934 346.394 454.704 342.834C461.974 339.013 611.815 251.034 611.815 251.034C611.815 251.034 617.995 248.197 618.431 243.128C618.443 243.345 618.457 243.561 618.457 243.793V251.803C618.457 257.224 611.815 260.27 611.815 260.27C611.815 260.27 461.974 343.337 454.704 347.159C447.934 350.719 442.314 347.159 442.314 347.159L245.735 237.935C245.735 237.935 241.264 235.603 241.264 232.29V229.205C241.268 229.127 241.271 228.265 241.276 227.654C241.279 227.944 241.282 228.171 241.283 228.197" fill="#DDDDFC"/>
<path fill-rule="evenodd" clip-rule="evenodd" d="M245.096 221.705L408.082 126.101C413.958 122.91 418.173 126.101 418.173 126.101L611.815 233.853C611.815 233.853 618.456 237.411 618.456 242.566C618.456 242.757 618.446 242.943 618.43 243.128C617.995 248.196 611.815 251.034 611.815 251.034C611.815 251.034 461.974 339.012 454.704 342.835C447.934 346.393 442.314 342.835 442.314 342.835L245.734 233.61C245.734 233.61 241.486 231.385 241.283 228.196C241.282 228.171 241.279 227.944 241.276 227.654C241.271 227.075 241.264 226.235 241.264 226.183C241.264 223.627 245.096 221.705 245.096 221.705" fill="#F6F6FF"/>
<path fill-rule="evenodd" clip-rule="evenodd" d="M625.936 234.515C626.105 234.416 626.266 234.311 626.422 234.201C630.696 231.202 629.994 224.655 629.994 224.655C629.994 224.655 630 60.8462 629.604 52.893C629.235 45.4868 623.143 42.7343 623.143 42.7343L423.638 -66.3916C423.638 -66.3916 419.447 -68.7143 416.511 -67.2186C416.487 -67.206 416.284 -67.0904 416.024 -66.9413C415.883 -66.8591 415.724 -66.7685 415.566 -66.6779C415.566 -66.6779 415.567 -66.6779 415.567 -66.6786C416.377 -67.1949 417.985 -67.9703 418.503 -68.2677C418.761 -68.4168 418.965 -68.5325 418.988 -68.5443C421.925 -70.0408 427.217 -67.3746 427.217 -67.3746L626.722 41.752C626.722 41.752 632.813 44.5038 633.182 51.9107C633.579 59.8639 633.572 223.672 633.572 223.672C633.572 223.672 634.275 230.219 630 233.218C629.845 233.328 629.685 233.433 629.515 233.532C624.938 236.22 620.458 235.42 620.458 235.42H620.457C622.271 235.643 624.244 235.51 625.936 234.515" fill="#DDDDFC"/>
<path fill-rule="evenodd" clip-rule="evenodd" d="M414.711 -66.1832C414.746 -66.2034 415.149 -66.4368 415.566 -66.6778C415.724 -66.7684 415.882 -66.8596 416.024 -66.9411C416.284 -67.0902 416.486 -67.2059 416.51 -67.2184C419.447 -68.7142 423.639 -66.3915 423.639 -66.3915L623.143 42.7344C623.143 42.7344 629.235 45.4869 629.603 52.8932C630.001 60.8463 629.993 224.655 629.993 224.655C629.993 224.655 630.697 231.202 626.422 234.201C626.266 234.31 626.105 234.416 625.936 234.516C624.244 235.51 622.271 235.643 620.458 235.42C617.365 235.038 614.735 233.613 614.735 233.613L418.07 123.742C418.07 123.742 413.037 121.95 412.809 115.468L412.733 -60.7074C412.733 -60.7074 412.442 -64.8511 414.711 -66.1832" fill="#F6F6FF"/>
<path fill-rule="evenodd" clip-rule="evenodd" d="M563.872 238.527L563.84 238.289C563.844 238.369 563.855 238.447 563.872 238.527" fill="#DDDDFC"/>
<path fill-rule="evenodd" clip-rule="evenodd" d="M563.838 238.276L563.84 238.289C563.84 238.285 563.84 238.28 563.84 238.276H563.838Z" fill="#DDDDFC"/>
<path fill-rule="evenodd" clip-rule="evenodd" d="M590.246 240.011L580.198 245.55C578.382 246.551 577.205 246.456 575.701 245.67L564.886 239.743C564.275 239.38 563.968 238.957 563.872 238.527L563.987 239.38C564.063 239.817 564.451 240.181 564.929 240.463L575.745 246.391C577.248 247.177 578.425 247.273 580.24 246.272L590.289 240.732C590.909 240.391 591.501 240.151 591.562 239.466L591.643 238.21H591.638C591.607 238.899 591.106 239.537 590.246 240.011" fill="#DDDDFC"/>
<path fill-rule="evenodd" clip-rule="evenodd" d="M544.036 227.521L544.004 227.283C544.008 227.362 544.019 227.442 544.036 227.521" fill="#DDDDFC"/>
<path fill-rule="evenodd" clip-rule="evenodd" d="M544.002 227.27L544.004 227.283V227.27H544.002Z" fill="#DDDDFC"/>
<path fill-rule="evenodd" clip-rule="evenodd" d="M570.409 229.006L560.362 234.545C558.547 235.545 557.369 235.449 555.865 234.663L545.05 228.736C544.439 228.375 544.133 227.952 544.036 227.521L544.152 228.375C544.228 228.811 544.614 229.174 545.093 229.458L555.91 235.386C557.412 236.171 558.589 236.267 560.404 235.266L570.454 229.727C571.072 229.385 571.666 229.145 571.725 228.46L571.807 227.204L571.802 227.205C571.771 227.893 571.27 228.531 570.409 229.006" fill="#DDDDFC"/>
<path fill-rule="evenodd" clip-rule="evenodd" d="M550.79 217.84L540.742 223.38C538.927 224.38 537.749 224.284 536.245 223.499L525.43 217.571C524.819 217.211 524.512 216.786 524.416 216.354L524.531 217.21C524.607 217.646 524.995 218.009 525.473 218.292L536.288 224.22C537.792 225.006 538.969 225.101 540.784 224.101L550.833 218.561C551.452 218.22 552.044 217.98 552.105 217.295L552.187 216.039H552.182C552.151 216.727 551.65 217.366 550.79 217.84" fill="#DDDDFC"/>
<path fill-rule="evenodd" clip-rule="evenodd" d="M505.277 204.785L505.245 204.547C505.249 204.627 505.26 204.705 505.277 204.785" fill="#DDDDFC"/>
<path fill-rule="evenodd" clip-rule="evenodd" d="M505.243 204.534L505.245 204.547V204.534H505.243Z" fill="#DDDDFC"/>
<path fill-rule="evenodd" clip-rule="evenodd" d="M531.651 206.269L521.603 211.808C519.787 212.809 518.61 212.713 517.107 211.928L506.291 206.001C505.68 205.638 505.373 205.215 505.277 204.784L505.392 205.638C505.468 206.075 505.856 206.438 506.334 206.721L517.15 212.648C518.653 213.434 519.83 213.53 521.646 212.53L531.694 206.991C532.313 206.649 532.906 206.408 532.967 205.724L533.048 204.468H533.042C533.012 205.157 532.511 205.795 531.651 206.269" fill="#DDDDFC"/>
<path fill-rule="evenodd" clip-rule="evenodd" d="M485.441 193.779L485.408 193.541C485.413 193.62 485.424 193.699 485.441 193.779" fill="#DDDDFC"/>
<path fill-rule="evenodd" clip-rule="evenodd" d="M485.407 193.528L485.408 193.541V193.528H485.407Z" fill="#DDDDFC"/>
<path fill-rule="evenodd" clip-rule="evenodd" d="M511.815 195.264L501.767 200.803C499.952 201.803 498.775 201.708 497.271 200.922L486.455 194.994C485.843 194.634 485.537 194.21 485.441 193.779L485.556 194.633C485.632 195.069 486.019 195.433 486.499 195.716L497.314 201.644C498.818 202.429 499.994 202.525 501.809 201.524L511.858 195.985C512.477 195.643 513.071 195.404 513.13 194.717L513.211 193.462L513.207 193.463C513.177 194.151 512.676 194.789 511.815 195.264" fill="#DDDDFC"/>
<path fill-rule="evenodd" clip-rule="evenodd" d="M492.194 184.098L482.146 189.637C480.332 190.638 479.154 190.542 477.65 189.756L466.834 183.828C466.224 183.468 465.916 183.043 465.821 182.612L465.936 183.468C466.012 183.904 466.4 184.267 466.878 184.55L477.693 190.477C479.197 191.263 480.374 191.359 482.189 190.359L492.238 184.819C492.858 184.478 493.449 184.237 493.51 183.553L493.591 182.297H493.586C493.556 182.985 493.055 183.623 492.194 184.098" fill="#DDDDFC"/>
<path fill-rule="evenodd" clip-rule="evenodd" d="M446.216 171.361L446.217 171.373C446.217 171.368 446.218 171.365 446.217 171.361H446.216Z" fill="#DDDDFC"/>
<path fill-rule="evenodd" clip-rule="evenodd" d="M472.623 173.096L462.576 178.634C460.76 179.635 459.583 179.539 458.078 178.754L447.263 172.827C446.653 172.465 446.346 172.041 446.25 171.61L446.365 172.465C446.439 172.901 446.828 173.264 447.307 173.548L458.122 179.474C459.625 180.261 460.803 180.357 462.618 179.356L472.666 173.817C473.286 173.475 473.878 173.234 473.938 172.549L474.021 171.294H474.016C473.985 171.983 473.483 172.621 472.623 173.096" fill="#DDDDFC"/>
<path fill-rule="evenodd" clip-rule="evenodd" d="M426.414 160.605L426.381 160.367C426.386 160.446 426.397 160.525 426.414 160.605" fill="#DDDDFC"/>
<path fill-rule="evenodd" clip-rule="evenodd" d="M426.38 160.354L426.382 160.367V160.354H426.38Z" fill="#DDDDFC"/>
<path fill-rule="evenodd" clip-rule="evenodd" d="M452.787 162.09L442.74 167.629C440.925 168.63 439.746 168.533 438.243 167.747L427.427 161.82C426.817 161.459 426.51 161.035 426.414 160.605L426.529 161.459C426.605 161.896 426.992 162.258 427.471 162.542L438.287 168.469C439.79 169.254 440.967 169.351 442.782 168.35L452.831 162.81C453.45 162.47 454.042 162.229 454.103 161.544L454.184 160.288L454.18 160.289C454.149 160.977 453.648 161.615 452.787 162.09" fill="#DDDDFC"/>
<path fill-rule="evenodd" clip-rule="evenodd" d="M433.168 150.924L423.119 156.463C421.305 157.464 420.127 157.368 418.622 156.582L407.806 150.655C407.196 150.294 406.89 149.869 406.794 149.439L406.909 150.294C406.984 150.73 407.373 151.093 407.85 151.376L418.666 157.303C420.168 158.09 421.347 158.185 423.162 157.184L433.209 151.645C433.829 151.304 434.422 151.063 434.482 150.379L434.563 149.123H434.56C434.529 149.811 434.028 150.45 433.168 150.924" fill="#DDDDFC"/>
<path fill-rule="evenodd" clip-rule="evenodd" d="M544.358 249.692L544.326 249.454C544.331 249.535 544.341 249.613 544.358 249.692" fill="#DDDDFC"/>
<path fill-rule="evenodd" clip-rule="evenodd" d="M544.325 249.442L544.326 249.455C544.326 249.45 544.327 249.446 544.326 249.442H544.325Z" fill="#DDDDFC"/>
<path fill-rule="evenodd" clip-rule="evenodd" d="M524.522 238.687L524.49 238.449C524.495 238.528 524.506 238.607 524.522 238.687" fill="#DDDDFC"/>
<path fill-rule="evenodd" clip-rule="evenodd" d="M524.488 238.436L524.49 238.449C524.491 238.445 524.49 238.44 524.49 238.436H524.488Z" fill="#DDDDFC"/>
<path fill-rule="evenodd" clip-rule="evenodd" d="M550.896 240.171L540.849 245.71C539.034 246.712 537.856 246.615 536.352 245.829L525.536 239.902C524.926 239.541 524.619 239.117 524.522 238.687L524.638 239.541C524.714 239.978 525.1 240.34 525.58 240.623L536.396 246.551C537.898 247.336 539.076 247.433 540.891 246.432L550.94 240.892C551.559 240.55 552.151 240.311 552.212 239.625L552.293 238.37L552.289 238.37C552.259 239.059 551.757 239.697 550.896 240.171" fill="#DDDDFC"/>
<path fill-rule="evenodd" clip-rule="evenodd" d="M531.276 229.006L521.228 234.545C519.413 235.545 518.235 235.45 516.732 234.664L505.915 228.736C505.305 228.376 504.999 227.951 504.902 227.52L505.017 228.375C505.092 228.811 505.48 229.174 505.959 229.457L516.774 235.385C518.278 236.172 519.457 236.267 521.271 235.266L531.319 229.727C531.938 229.385 532.532 229.145 532.592 228.46L532.673 227.205H532.668C532.637 227.892 532.136 228.531 531.276 229.006" fill="#DDDDFC"/>
<path fill-rule="evenodd" clip-rule="evenodd" d="M485.764 215.95L485.731 215.713C485.735 215.793 485.746 215.871 485.764 215.95" fill="#DDDDFC"/>
<path fill-rule="evenodd" clip-rule="evenodd" d="M485.73 215.7L485.731 215.713C485.731 215.708 485.732 215.704 485.731 215.7H485.73Z" fill="#DDDDFC"/>
<path fill-rule="evenodd" clip-rule="evenodd" d="M512.137 217.435L502.089 222.973C500.274 223.974 499.097 223.879 497.593 223.094L486.777 217.166C486.167 216.803 485.859 216.381 485.764 215.95L485.879 216.803C485.954 217.24 486.342 217.604 486.82 217.887L497.636 223.815C499.138 224.601 500.317 224.696 502.132 223.696L512.181 218.156C512.8 217.814 513.392 217.574 513.453 216.889L513.534 215.634H513.53C513.499 216.322 512.998 216.96 512.137 217.435" fill="#DDDDFC"/>
<path fill-rule="evenodd" clip-rule="evenodd" d="M465.927 204.945L465.895 204.707C465.9 204.786 465.911 204.865 465.927 204.945" fill="#DDDDFC"/>
<path fill-rule="evenodd" clip-rule="evenodd" d="M465.893 204.694L465.895 204.707C465.896 204.702 465.895 204.698 465.895 204.694H465.893Z" fill="#DDDDFC"/>
<path fill-rule="evenodd" clip-rule="evenodd" d="M492.301 206.429L482.253 211.969C480.439 212.969 479.261 212.873 477.758 212.087L466.941 206.159C466.331 205.798 466.024 205.375 465.927 204.944L466.043 205.798C466.119 206.235 466.505 206.598 466.985 206.881L477.801 212.809C479.303 213.594 480.481 213.691 482.296 212.69L492.345 207.15C492.964 206.809 493.556 206.569 493.616 205.883L493.698 204.628H493.693C493.664 205.316 493.162 205.955 492.301 206.429" fill="#DDDDFC"/>
<path fill-rule="evenodd" clip-rule="evenodd" d="M472.681 195.264L462.633 200.803C460.818 201.803 459.64 201.708 458.136 200.922L447.32 194.995C446.71 194.634 446.404 194.209 446.307 193.778L446.423 194.634C446.497 195.069 446.887 195.433 447.364 195.715L458.18 201.643C459.683 202.429 460.861 202.525 462.676 201.524L472.724 195.985C473.343 195.643 473.937 195.403 473.996 194.718L474.078 193.463H474.073C474.042 194.15 473.541 194.789 472.681 195.264" fill="#DDDDFC"/>
<path fill-rule="evenodd" clip-rule="evenodd" d="M426.736 182.776L426.704 182.539C426.709 182.618 426.719 182.697 426.736 182.776" fill="#DDDDFC"/>
<path fill-rule="evenodd" clip-rule="evenodd" d="M426.702 182.526L426.704 182.539C426.704 182.534 426.704 182.53 426.704 182.526H426.702Z" fill="#DDDDFC"/>
<path fill-rule="evenodd" clip-rule="evenodd" d="M453.109 184.261L443.062 189.799C441.247 190.801 440.069 190.704 438.566 189.92L427.749 183.992C427.139 183.63 426.832 183.207 426.736 182.776L426.851 183.63C426.927 184.067 427.315 184.43 427.792 184.713L438.609 190.641C440.111 191.427 441.29 191.522 443.104 190.521L453.153 184.982C453.772 184.64 454.364 184.4 454.426 183.715L454.507 182.46H454.502C454.472 183.147 453.97 183.786 453.109 184.261" fill="#DDDDFC"/>
<path fill-rule="evenodd" clip-rule="evenodd" d="M406.9 171.77L406.868 171.533C406.872 171.612 406.884 171.692 406.9 171.77" fill="#DDDDFC"/>
<path fill-rule="evenodd" clip-rule="evenodd" d="M406.866 171.52L406.868 171.533V171.52H406.866Z" fill="#DDDDFC"/>
<path fill-rule="evenodd" clip-rule="evenodd" d="M433.273 173.256L423.226 178.795C421.411 179.795 420.234 179.699 418.73 178.913L407.914 172.985C407.304 172.625 406.997 172.201 406.9 171.77L407.015 172.625C407.092 173.061 407.478 173.423 407.958 173.707L418.774 179.635C420.276 180.42 421.454 180.517 423.269 179.516L433.318 173.977C433.937 173.635 434.529 173.395 434.589 172.709L434.671 171.453L434.666 171.454C434.635 172.142 434.134 172.781 433.273 173.256" fill="#DDDDFC"/>
<path fill-rule="evenodd" clip-rule="evenodd" d="M523.275 260.858L523.243 260.62C523.246 260.699 523.258 260.778 523.275 260.858" fill="#DDDDFC"/>
<path fill-rule="evenodd" clip-rule="evenodd" d="M523.241 260.607L523.243 260.621C523.242 260.616 523.244 260.612 523.242 260.607H523.241Z" fill="#DDDDFC"/>
<path fill-rule="evenodd" clip-rule="evenodd" d="M503.439 249.852L503.407 249.615C503.411 249.693 503.423 249.773 503.439 249.852" fill="#DDDDFC"/>
<path fill-rule="evenodd" clip-rule="evenodd" d="M503.405 249.601L503.407 249.615V249.601H503.405Z" fill="#DDDDFC"/>
<path fill-rule="evenodd" clip-rule="evenodd" d="M529.813 251.337L519.765 256.876C517.95 257.876 516.772 257.78 515.269 256.994L504.452 251.067C503.842 250.706 503.535 250.283 503.44 249.852L503.554 250.706C503.63 251.142 504.017 251.505 504.497 251.789L515.313 257.717C516.815 258.502 517.992 258.598 519.808 257.597L529.856 252.058C530.475 251.716 531.068 251.476 531.129 250.791L531.21 249.535L531.205 249.536C531.174 250.224 530.673 250.862 529.813 251.337" fill="#DDDDFC"/>
<path fill-rule="evenodd" clip-rule="evenodd" d="M510.193 240.171L500.144 245.71C498.33 246.712 497.153 246.615 495.648 245.83L484.832 239.902C484.221 239.541 483.915 239.117 483.819 238.686L483.934 239.541C484.01 239.977 484.398 240.34 484.875 240.623L495.692 246.551C497.194 247.337 498.372 247.433 500.188 246.432L510.236 240.892C510.855 240.551 511.448 240.311 511.507 239.626L511.588 238.37H511.586C511.554 239.058 511.053 239.697 510.193 240.171" fill="#DDDDFC"/>
<path fill-rule="evenodd" clip-rule="evenodd" d="M464.68 227.116L464.648 226.878C464.651 226.958 464.663 227.036 464.68 227.116" fill="#DDDDFC"/>
<path fill-rule="evenodd" clip-rule="evenodd" d="M464.646 226.865L464.648 226.879C464.647 226.873 464.649 226.87 464.647 226.865H464.646Z" fill="#DDDDFC"/>
<path fill-rule="evenodd" clip-rule="evenodd" d="M491.053 228.6L481.006 234.139C479.19 235.14 478.013 235.044 476.509 234.259L465.693 228.332C465.084 227.969 464.776 227.546 464.68 227.116L464.795 227.969C464.87 228.406 465.258 228.769 465.738 229.053L476.552 234.98C478.055 235.765 479.234 235.862 481.049 234.861L491.096 229.322C491.716 228.98 492.309 228.74 492.369 228.055L492.451 226.8H492.446C492.415 227.488 491.913 228.126 491.053 228.6" fill="#DDDDFC"/>
<path fill-rule="evenodd" clip-rule="evenodd" d="M444.844 216.11L444.812 215.872C444.816 215.951 444.827 216.031 444.844 216.11" fill="#DDDDFC"/>
<path fill-rule="evenodd" clip-rule="evenodd" d="M444.81 215.859L444.812 215.873V215.859H444.81Z" fill="#DDDDFC"/>
<path fill-rule="evenodd" clip-rule="evenodd" d="M471.218 217.595L461.171 223.134C459.355 224.134 458.177 224.038 456.674 223.252L445.857 217.325C445.247 216.964 444.94 216.541 444.844 216.11L444.96 216.964C445.035 217.4 445.422 217.763 445.902 218.047L456.718 223.975C458.22 224.76 459.397 224.856 461.213 223.855L471.261 218.316C471.88 217.974 472.473 217.734 472.534 217.049L472.615 215.793L472.61 215.794C472.579 216.482 472.078 217.12 471.218 217.595" fill="#DDDDFC"/>
<path fill-rule="evenodd" clip-rule="evenodd" d="M451.598 206.429L441.549 211.969C439.735 212.969 438.557 212.873 437.053 212.087L426.237 206.16C425.627 205.799 425.319 205.374 425.224 204.944L425.339 205.798C425.414 206.235 425.802 206.598 426.28 206.881L437.096 212.808C438.599 213.595 439.777 213.69 441.593 212.69L451.64 207.15C452.26 206.809 452.853 206.568 452.913 205.884L452.993 204.628H452.99C452.959 205.316 452.458 205.955 451.598 206.429" fill="#DDDDFC"/>
<path fill-rule="evenodd" clip-rule="evenodd" d="M405.653 193.942L405.62 193.704C405.624 193.784 405.636 193.862 405.653 193.942" fill="#DDDDFC"/>
<path fill-rule="evenodd" clip-rule="evenodd" d="M405.619 193.691L405.62 193.704C405.62 193.699 405.621 193.696 405.62 193.691H405.619Z" fill="#DDDDFC"/>
<path fill-rule="evenodd" clip-rule="evenodd" d="M432.026 195.426L421.978 200.965C420.163 201.967 418.986 201.87 417.482 201.085L406.666 195.157C406.057 194.795 405.748 194.372 405.653 193.942L405.768 194.795C405.843 195.233 406.231 195.596 406.709 195.879L417.525 201.806C419.028 202.591 420.207 202.688 422.021 201.687L432.069 196.148C432.689 195.806 433.281 195.566 433.342 194.881L433.423 193.625H433.419C433.388 194.314 432.886 194.952 432.026 195.426" fill="#DDDDFC"/>
<path fill-rule="evenodd" clip-rule="evenodd" d="M385.817 182.937L385.785 182.698C385.789 182.777 385.8 182.857 385.817 182.937" fill="#DDDDFC"/>
<path fill-rule="evenodd" clip-rule="evenodd" d="M385.783 182.685L385.785 182.699V182.685H385.783Z" fill="#DDDDFC"/>
<path fill-rule="evenodd" clip-rule="evenodd" d="M412.19 184.421L402.143 189.96C400.328 190.961 399.15 190.865 397.647 190.078L386.83 184.151C386.22 183.791 385.912 183.367 385.817 182.937L385.932 183.79C386.007 184.227 386.395 184.59 386.874 184.872L397.689 190.801C399.192 191.586 400.37 191.682 402.186 190.681L412.234 185.142C412.853 184.8 413.446 184.561 413.505 183.876L413.586 182.62L413.583 182.62C413.552 183.308 413.05 183.946 412.19 184.421" fill="#DDDDFC"/>
<path fill-rule="evenodd" clip-rule="evenodd" d="M413.653 162.267L403.607 167.806C401.791 168.807 400.614 168.71 399.11 167.924L388.294 161.997C387.684 161.636 387.377 161.213 387.28 160.782L387.395 161.636C387.472 162.073 387.858 162.435 388.338 162.718L399.154 168.647C400.656 169.432 401.833 169.528 403.649 168.527L413.698 162.988C414.317 162.646 414.91 162.406 414.969 161.721L415.051 160.465L415.046 160.466C415.015 161.153 414.514 161.792 413.653 162.267" fill="#DDDDFC"/>
<path fill-rule="evenodd" clip-rule="evenodd" d="M392.57 173.432L382.523 178.972C380.708 179.972 379.53 179.876 378.027 179.09L367.211 173.162C366.6 172.802 366.292 172.378 366.197 171.948L366.312 172.801C366.387 173.238 366.775 173.601 367.255 173.885L378.07 179.812C379.573 180.597 380.75 180.694 382.566 179.693L392.614 174.153C393.234 173.811 393.826 173.572 393.885 172.886L393.966 171.631L393.963 171.632C393.932 172.319 393.431 172.957 392.57 173.432" fill="#DDDDFC"/>
<path fill-rule="evenodd" clip-rule="evenodd" d="M570.481 251.256L539.349 267.895C537.534 268.895 536.357 268.8 534.854 268.014L524.038 262.086C523.426 261.726 523.121 261.301 523.024 260.87L523.139 261.725C523.214 262.161 523.604 262.524 524.081 262.807L534.898 268.735C536.4 269.521 537.578 269.617 539.394 268.616L570.524 251.977C571.143 251.636 571.737 251.395 571.797 250.71L571.879 249.455H571.873C571.842 250.143 571.341 250.781 570.481 251.256" fill="#DDDDFC"/>
<path fill-rule="evenodd" clip-rule="evenodd" d="M503.762 272.023L503.729 271.786C503.733 271.866 503.744 271.944 503.762 272.023" fill="#DDDDFC"/>
<path fill-rule="evenodd" clip-rule="evenodd" d="M503.728 271.773L503.729 271.786C503.729 271.781 503.73 271.777 503.729 271.773H503.728Z" fill="#DDDDFC"/>
<path fill-rule="evenodd" clip-rule="evenodd" d="M530.135 273.508L520.087 279.047C518.272 280.047 517.095 279.952 515.592 279.167L504.775 273.24C504.165 272.877 503.857 272.454 503.762 272.023L503.876 272.877C503.952 273.313 504.34 273.677 504.817 273.961L515.634 279.887C517.137 280.673 518.315 280.769 520.13 279.769L530.178 274.23C530.798 273.887 531.39 273.647 531.451 272.962L531.532 271.708H531.528C531.496 272.395 530.995 273.033 530.135 273.508" fill="#DDDDFC"/>
<path fill-rule="evenodd" clip-rule="evenodd" d="M483.926 261.018L483.893 260.78C483.897 260.859 483.909 260.938 483.926 261.018" fill="#DDDDFC"/>
<path fill-rule="evenodd" clip-rule="evenodd" d="M483.892 260.767L483.893 260.78C483.895 260.775 483.893 260.771 483.893 260.767H483.892Z" fill="#DDDDFC"/>
<path fill-rule="evenodd" clip-rule="evenodd" d="M510.298 262.503L500.251 268.042C498.436 269.042 497.26 268.946 495.755 268.16L484.939 262.233C484.33 261.872 484.022 261.448 483.926 261.018L484.04 261.871C484.117 262.308 484.504 262.671 484.983 262.955L495.799 268.882C497.302 269.668 498.478 269.764 500.294 268.763L510.343 263.224C510.962 262.881 511.555 262.642 511.615 261.956L511.696 260.701L511.692 260.702C511.661 261.39 511.16 262.027 510.298 262.503" fill="#DDDDFC"/>
<path fill-rule="evenodd" clip-rule="evenodd" d="M490.679 251.337L480.631 256.876C478.816 257.876 477.638 257.781 476.135 256.995L465.318 251.068C464.708 250.707 464.401 250.282 464.305 249.852L464.42 250.706C464.496 251.142 464.884 251.505 465.362 251.788L476.178 257.716C477.68 258.503 478.858 258.597 480.674 257.597L490.722 252.058C491.341 251.716 491.934 251.476 491.995 250.791L492.076 249.536H492.071C492.041 250.224 491.54 250.862 490.679 251.337" fill="#DDDDFC"/>
<path fill-rule="evenodd" clip-rule="evenodd" d="M445.166 238.281L445.134 238.043C445.138 238.124 445.149 238.202 445.166 238.281" fill="#DDDDFC"/>
<path fill-rule="evenodd" clip-rule="evenodd" d="M445.133 238.031L445.134 238.044C445.134 238.039 445.135 238.035 445.134 238.031H445.133Z" fill="#DDDDFC"/>
<path fill-rule="evenodd" clip-rule="evenodd" d="M471.54 239.766L461.492 245.304C459.677 246.305 458.5 246.21 456.996 245.425L446.18 239.498C445.57 239.135 445.262 238.712 445.166 238.281L445.282 239.135C445.357 239.571 445.745 239.935 446.224 240.219L457.039 246.145C458.542 246.931 459.72 247.027 461.535 246.027L471.583 240.487C472.202 240.145 472.795 239.905 472.856 239.22L472.938 237.966H472.933C472.901 238.653 472.4 239.291 471.54 239.766" fill="#DDDDFC"/>
<path fill-rule="evenodd" clip-rule="evenodd" d="M425.331 227.276L425.298 227.038C425.302 227.117 425.314 227.196 425.331 227.276" fill="#DDDDFC"/>
<path fill-rule="evenodd" clip-rule="evenodd" d="M425.297 227.025L425.298 227.038V227.025H425.297Z" fill="#DDDDFC"/>
<path fill-rule="evenodd" clip-rule="evenodd" d="M451.703 228.76L441.656 234.3C439.841 235.3 438.664 235.204 437.16 234.418L426.344 228.491C425.735 228.13 425.427 227.706 425.331 227.276L425.445 228.129C425.521 228.566 425.909 228.929 426.387 229.213L437.204 235.14C438.706 235.926 439.883 236.022 441.699 235.021L451.747 229.481C452.366 229.139 452.959 228.9 453.02 228.214L453.101 226.959L453.097 226.96C453.065 227.648 452.564 228.286 451.703 228.76" fill="#DDDDFC"/>
<path fill-rule="evenodd" clip-rule="evenodd" d="M432.084 217.595L422.036 223.134C420.221 224.134 419.043 224.039 417.54 223.253L406.724 217.326C406.113 216.965 405.806 216.54 405.71 216.109L405.826 216.964C405.901 217.4 406.289 217.763 406.767 218.046L417.583 223.974C419.086 224.761 420.264 224.855 422.079 223.855L432.127 218.316C432.746 217.974 433.339 217.734 433.4 217.049L433.481 215.794H433.476C433.445 216.481 432.944 217.12 432.084 217.595" fill="#DDDDFC"/>
<path fill-rule="evenodd" clip-rule="evenodd" d="M386.14 205.107L386.107 204.87C386.111 204.95 386.121 205.028 386.14 205.107" fill="#DDDDFC"/>
<path fill-rule="evenodd" clip-rule="evenodd" d="M386.105 204.857L386.107 204.87C386.106 204.865 386.107 204.861 386.106 204.857H386.105Z" fill="#DDDDFC"/>
<path fill-rule="evenodd" clip-rule="evenodd" d="M412.513 206.592L402.465 212.13C400.649 213.131 399.473 213.036 397.968 212.251L387.153 206.324C386.543 205.961 386.235 205.538 386.14 205.107L386.253 205.961C386.33 206.397 386.718 206.761 387.195 207.045L398.012 212.971C399.515 213.757 400.692 213.853 402.508 212.853L412.555 207.314C413.175 206.971 413.768 206.731 413.829 206.046L413.91 204.792H413.905C413.874 205.479 413.373 206.117 412.513 206.592" fill="#DDDDFC"/>
<path fill-rule="evenodd" clip-rule="evenodd" d="M366.303 194.102L366.271 193.864C366.275 193.943 366.286 194.021 366.303 194.102" fill="#DDDDFC"/>
<path fill-rule="evenodd" clip-rule="evenodd" d="M366.268 193.851L366.271 193.864V193.851H366.268Z" fill="#DDDDFC"/>
<path fill-rule="evenodd" clip-rule="evenodd" d="M392.676 195.587L382.628 201.126C380.813 202.126 379.637 202.03 378.133 201.244L367.317 195.316C366.706 194.956 366.4 194.532 366.303 194.101L366.418 194.956C366.495 195.392 366.882 195.755 367.361 196.038L378.177 201.966C379.679 202.751 380.856 202.848 382.671 201.847L392.719 196.307C393.339 195.966 393.933 195.725 393.993 195.04L394.074 193.784H394.07C394.038 194.473 393.537 195.112 392.676 195.587" fill="#DDDDFC"/>
<path fill-rule="evenodd" clip-rule="evenodd" d="M373.056 184.421L363.008 189.96C361.193 190.961 360.016 190.865 358.511 190.079L347.696 184.152C347.085 183.791 346.779 183.366 346.683 182.935L346.798 183.791C346.874 184.226 347.262 184.59 347.74 184.872L358.555 190.8C360.058 191.586 361.236 191.682 363.052 190.681L373.1 185.142C373.719 184.8 374.312 184.56 374.371 183.876L374.453 182.62H374.448C374.418 183.307 373.917 183.946 373.056 184.421" fill="#DDDDFC"/>
<path fill-rule="evenodd" clip-rule="evenodd" d="M482.685 283.188L482.654 282.95C482.658 283.031 482.668 283.109 482.685 283.188" fill="#DDDDFC"/>
<path fill-rule="evenodd" clip-rule="evenodd" d="M482.652 282.938L482.654 282.951V282.938H482.652Z" fill="#DDDDFC"/>
<path fill-rule="evenodd" clip-rule="evenodd" d="M509.059 284.673L499.011 290.212C497.196 291.212 496.019 291.117 494.516 290.332L483.699 284.405C483.089 284.042 482.782 283.619 482.685 283.188L482.801 284.042C482.877 284.478 483.265 284.842 483.742 285.126L494.559 291.052C496.061 291.838 497.239 291.934 499.053 290.934L509.102 285.395C509.722 285.053 510.314 284.812 510.375 284.127L510.457 282.873H510.452C510.42 283.56 509.92 284.198 509.059 284.673" fill="#DDDDFC"/>
<path fill-rule="evenodd" clip-rule="evenodd" d="M462.85 272.183L462.817 271.945C462.822 272.024 462.833 272.103 462.85 272.183" fill="#DDDDFC"/>
<path fill-rule="evenodd" clip-rule="evenodd" d="M462.816 271.932L462.817 271.945C462.818 271.941 462.817 271.936 462.817 271.932H462.816Z" fill="#DDDDFC"/>
<path fill-rule="evenodd" clip-rule="evenodd" d="M489.223 273.668L479.175 279.207C477.361 280.207 476.184 280.111 474.679 279.325L463.864 273.398C463.254 273.037 462.946 272.613 462.85 272.183L462.965 273.036C463.041 273.473 463.428 273.836 463.907 274.12L474.723 280.047C476.226 280.832 477.403 280.929 479.217 279.928L489.267 274.389C489.886 274.047 490.479 273.807 490.538 273.121L490.62 271.866L490.616 271.867C490.585 272.555 490.084 273.193 489.223 273.668" fill="#DDDDFC"/>
<path fill-rule="evenodd" clip-rule="evenodd" d="M469.602 262.502L459.555 268.041C457.741 269.042 456.562 268.946 455.059 268.16L366.077 217.53C365.466 217.169 365.159 216.744 365.063 216.314L365.178 217.168C365.254 217.604 365.642 217.967 366.12 218.25L455.103 268.881C456.605 269.668 457.783 269.762 459.598 268.763L469.647 263.223C470.265 262.881 470.858 262.641 470.919 261.956L471 260.701H470.994C470.965 261.389 470.463 262.027 469.602 262.502" fill="#DDDDFC"/>
<path fill-rule="evenodd" clip-rule="evenodd" d="M424.091 249.446L424.058 249.209C424.063 249.289 424.074 249.367 424.091 249.446" fill="#DDDDFC"/>
<path fill-rule="evenodd" clip-rule="evenodd" d="M424.057 249.196L424.058 249.209C424.058 249.204 424.059 249.2 424.058 249.196H424.057Z" fill="#DDDDFC"/>
<path fill-rule="evenodd" clip-rule="evenodd" d="M404.255 238.441L404.222 238.203C404.227 238.282 404.238 238.361 404.255 238.441" fill="#DDDDFC"/>
<path fill-rule="evenodd" clip-rule="evenodd" d="M404.221 238.19L404.222 238.203V238.19H404.221Z" fill="#DDDDFC"/>
<path fill-rule="evenodd" clip-rule="evenodd" d="M365.063 216.272L365.032 216.035C365.035 216.115 365.046 216.193 365.063 216.272" fill="#DDDDFC"/>
<path fill-rule="evenodd" clip-rule="evenodd" d="M365.029 216.022L365.032 216.035C365.03 216.03 365.032 216.026 365.03 216.022H365.029Z" fill="#DDDDFC"/>
<path fill-rule="evenodd" clip-rule="evenodd" d="M345.228 205.267L345.195 205.029C345.199 205.108 345.21 205.187 345.228 205.267" fill="#DDDDFC"/>
<path fill-rule="evenodd" clip-rule="evenodd" d="M345.194 205.016L345.195 205.029V205.016H345.194Z" fill="#DDDDFC"/>
<path fill-rule="evenodd" clip-rule="evenodd" d="M371.6 206.751L361.553 212.291C359.738 213.292 358.56 213.195 357.057 212.409L346.241 206.482C345.631 206.121 345.324 205.697 345.228 205.267L345.342 206.12C345.419 206.558 345.806 206.92 346.284 207.203L357.101 213.131C358.604 213.917 359.78 214.013 361.595 213.012L371.644 207.472C372.264 207.13 372.857 206.891 372.916 206.205L372.998 204.95H372.994C372.963 205.639 372.461 206.277 371.6 206.751" fill="#DDDDFC"/>
<path fill-rule="evenodd" clip-rule="evenodd" d="M351.981 195.586L341.933 201.125C340.118 202.126 338.94 202.03 337.437 201.244L326.621 195.317C326.01 194.956 325.703 194.531 325.607 194.1L325.722 194.956C325.798 195.391 326.186 195.755 326.664 196.038L337.48 201.966C338.983 202.751 340.16 202.847 341.976 201.846L352.024 196.306C352.643 195.966 353.236 195.725 353.296 195.04L353.377 193.785H353.373C353.342 194.473 352.842 195.111 351.981 195.586" fill="#DDDDFC"/>
<path fill-rule="evenodd" clip-rule="evenodd" d="M415.805 -55.6719L415.877 111.378C416.094 117.523 420.865 119.222 420.865 119.222L612.455 226.84C612.455 226.84 614.949 228.191 617.881 228.553C619.6 228.765 621.47 228.638 623.075 227.696C623.236 227.601 623.392 227.506 623.536 227.398C626.964 224.83 626.923 218.345 626.923 218.345V55.4819C626.573 48.4602 620.428 45.8505 620.428 45.8505L422.85 -62.8567C422.85 -62.8567 419.039 -64.9188 417.374 -63.1033C415.603 -61.1728 415.805 -59.9954 415.805 -55.6719" fill="#C86DD7"/>
<path fill-rule="evenodd" clip-rule="evenodd" d="M595.894 265.398L602.768 261.462C603.834 260.852 604.462 259.386 603.871 258.346C604.542 258.428 605.169 258.789 605.543 259.391C606.189 260.435 605.554 261.944 604.469 262.565L597.597 266.501C596.962 266.864 596.22 266.89 595.584 266.647C595.131 266.474 594.729 266.171 594.46 265.738C594.448 265.72 594.44 265.7 594.429 265.68C594.92 265.745 595.436 265.661 595.894 265.398" fill="#B6B6DD"/>
<path fill-rule="evenodd" clip-rule="evenodd" d="M595.533 262.565L602.406 258.629C602.778 258.416 603.189 258.324 603.593 258.327C603.686 258.327 603.778 258.334 603.87 258.346C604.462 259.386 603.833 260.853 602.768 261.462L595.894 265.398C595.435 265.661 594.92 265.745 594.429 265.68C593.839 264.64 594.468 263.175 595.533 262.565" fill="#C7C7EA"/>
<path fill-rule="evenodd" clip-rule="evenodd" d="M468.46 -21.7749V137.332L572.765 194.764V35.6561L468.46 -21.7749Z" fill="white"/>
<path fill-rule="evenodd" clip-rule="evenodd" d="M468.46 -10.0543L572.765 47.3761V105.102L468.46 47.6698V-10.0543Z" fill="#DDDDFC"/>
<path fill-rule="evenodd" clip-rule="evenodd" d="M481.017 87.1653V102.49L501.713 113.825V98.711L481.017 87.1653Z" fill="#DDDDFC"/>
<path fill-rule="evenodd" clip-rule="evenodd" d="M493.326 70.6353V75.1476L546.668 104.798V100.495L493.326 70.6353Z" fill="#DDDDFC"/>
<path fill-rule="evenodd" clip-rule="evenodd" d="M502.34 83.4135V87.1653L537.848 106.669V103.127L502.34 83.4135Z" fill="#DDDDFC"/>
<path fill-rule="evenodd" clip-rule="evenodd" d="M481.017 104.798V106.792L501.713 118.128V116.344L481.017 104.798Z" fill="#DDDDFC"/>
<path fill-rule="evenodd" clip-rule="evenodd" d="M481.017 109.546V111.54L497.479 120.653V118.868L481.017 109.546Z" fill="#DDDDFC"/>
<path fill-rule="evenodd" clip-rule="evenodd" d="M509.027 102.668V117.992L529.723 129.328V114.213L509.027 102.668Z" fill="#DDDDFC"/>
<path fill-rule="evenodd" clip-rule="evenodd" d="M509.027 120.301V122.295L529.723 133.631V131.847L509.027 120.301Z" fill="#DDDDFC"/>
<path fill-rule="evenodd" clip-rule="evenodd" d="M509.027 124.698V126.69L525.491 135.804V134.02L509.027 124.698Z" fill="#DDDDFC"/>
<path fill-rule="evenodd" clip-rule="evenodd" d="M536.942 118.171V133.495L557.637 144.831V129.716L536.942 118.171Z" fill="#DDDDFC"/>
<path fill-rule="evenodd" clip-rule="evenodd" d="M536.996 156.987V164.253L555.252 174.249V167.194L536.996 156.987Z" fill="#DDDDFC"/>
<path fill-rule="evenodd" clip-rule="evenodd" d="M536.942 135.804V137.798L557.637 149.134V147.35L536.942 135.804Z" fill="#DDDDFC"/>
<path fill-rule="evenodd" clip-rule="evenodd" d="M536.996 140.17V142.163L553.459 151.277V149.493L536.996 140.17Z" fill="#DDDDFC"/>
<path fill-rule="evenodd" clip-rule="evenodd" d="M536.996 156.987L538.308 156.347L556.341 166.552L555.252 167.194L536.996 156.987Z" fill="#E4E4F4"/>
<path fill-rule="evenodd" clip-rule="evenodd" d="M555.252 167.194L556.341 166.552V173.607L555.252 174.249V167.194Z" fill="#CECEEF"/>
<path fill-rule="evenodd" clip-rule="evenodd" d="M244.615 152.113C244.615 152.113 134.217 213.739 130.594 215.76C124.265 219.29 118.583 215.209 118.583 215.209L46.6163 175.222C46.6163 175.222 44.5386 174.309 44.4943 171.977C44.4921 171.966 44.4892 171.955 44.4892 171.945V175.834C44.4892 177.52 47.0505 178.937 47.0505 178.937L119.19 219.722C119.19 219.722 124.689 223.335 131.008 219.733C134.611 217.679 244.615 155.476 244.615 155.476C244.615 155.476 247.963 153.925 247.963 151.166V148.71C247.724 150.724 244.615 152.113 244.615 152.113" fill="#DDDDFC"/>
<path fill-rule="evenodd" clip-rule="evenodd" d="M243.479 143.886L175.273 105.243C175.273 105.243 169.347 101.053 162.549 104.88L46.729 168.675C46.729 168.675 44.4893 169.717 44.4893 171.904C44.4893 171.929 44.4922 171.953 44.4944 171.977C44.5387 174.309 46.6164 175.222 46.6164 175.222L118.583 215.209C118.583 215.209 124.265 219.29 130.594 215.76C134.217 213.739 244.615 152.113 244.615 152.113C244.615 152.113 247.724 150.723 247.963 148.71C248.238 146.407 243.479 143.886 243.479 143.886" fill="#F6F6FF"/>
<path fill-rule="evenodd" clip-rule="evenodd" d="M237.109 148.96L139.117 203.511L68.864 164.444L166.254 109.383L237.109 148.96Z" fill="#C86DD7"/>
<path fill-rule="evenodd" clip-rule="evenodd" d="M87.0671 188.735C87.0671 187.07 89.383 185.72 92.2397 185.72C95.095 185.72 97.4123 187.07 97.4123 188.735C97.4123 190.402 95.095 191.753 92.2397 191.753C89.383 191.753 87.0671 190.402 87.0671 188.735M86.6591 188.735C86.6591 190.533 89.1572 191.991 92.2397 191.991C95.3207 191.991 97.8188 190.533 97.8188 188.735C97.8188 186.939 95.3207 185.482 92.2397 185.482C89.1572 185.482 86.6591 186.939 86.6591 188.735" fill="#D8D8D8"/>
<path fill-rule="evenodd" clip-rule="evenodd" d="M274.177 38.2743L274.237 39.4403C274.705 47.1762 278.573 90.8058 306.586 98.4318C329.045 104.049 335.401 95.9245 336.122 94.8626L339.459 29.1283H273.714L274.177 38.2609V38.2743Z" fill="white"/>
<path fill-rule="evenodd" clip-rule="evenodd" d="M306.586 98.432C278.573 90.806 274.705 47.1764 274.236 39.4406L277.277 99.3215C277.277 108.417 290.398 115.792 306.586 115.792C322.773 115.792 335.896 108.417 335.896 99.3215L336.122 94.8629C335.402 95.9247 329.044 104.05 306.586 98.432" fill="#F6F6FF"/>
<path fill-rule="evenodd" clip-rule="evenodd" d="M306.586 109.86C291.123 109.86 278.419 103.228 276.978 94.7508C276.888 95.2806 276.838 95.8162 276.838 96.3587C276.838 105.592 290.157 113.077 306.586 113.077C323.016 113.077 336.335 105.592 336.335 96.3587C336.335 95.8162 336.285 95.2806 336.195 94.7508C334.755 103.228 322.051 109.86 306.586 109.86" fill="#F0F0FC"/>
<path fill-rule="evenodd" clip-rule="evenodd" d="M338.763 27.0082C338.763 36.9951 324.357 45.0905 306.586 45.0905C288.815 45.0905 274.408 36.9951 274.408 27.0082C274.408 17.0212 288.815 8.92649 306.586 8.92649C324.357 8.92649 338.763 17.0212 338.763 27.0082" fill="white"/>
<path fill-rule="evenodd" clip-rule="evenodd" d="M306.586 50.2239C289.56 50.2239 275.572 42.9223 273.986 33.5862C273.886 34.1703 273.831 34.7607 273.831 35.3582C273.831 45.5239 288.496 53.7663 306.586 53.7663C324.675 53.7663 339.342 45.5239 339.342 35.3582C339.342 34.7607 339.286 34.1703 339.187 33.5862C337.601 42.9223 323.613 50.2239 306.586 50.2239" fill="#F0F0FC"/>
<path fill-rule="evenodd" clip-rule="evenodd" d="M306.586 34.783C289.867 34.783 276.133 27.6129 274.576 18.4465C274.478 19.0193 274.425 19.5991 274.425 20.1867C274.425 30.1681 288.823 38.2614 306.586 38.2614C324.349 38.2614 338.749 30.1681 338.749 20.1867C338.749 19.5991 338.694 19.0193 338.598 18.4465C337.039 27.6129 323.303 34.783 306.586 34.783" fill="#FCFCFC"/>
<path fill-rule="evenodd" clip-rule="evenodd" d="M307.237 44.7252C319.718 45.8511 327.338 44.0932 331.975 41.7246C335.024 39.7859 337.378 37.4967 338.825 34.9768C338.974 34.5932 339.024 34.3666 339.024 34.3666C339.024 34.3666 339.06 34.3863 339.127 34.418C339.989 32.739 340.462 30.9649 340.462 29.1283C340.462 18.6142 325.295 10.0917 306.586 10.0917C291.577 10.0917 278.855 15.5799 274.408 23.1778C274.392 23.7069 274.084 42.1447 307.237 44.7252" fill="white"/>
<path fill-rule="evenodd" clip-rule="evenodd" d="M306.586 48.1654C316.698 48.1654 325.769 45.6728 331.976 41.7244C327.338 44.093 319.718 45.8509 307.237 44.7249C274.083 42.1445 274.393 23.7074 274.408 23.1775C273.311 25.0501 272.711 27.05 272.711 29.1288C272.711 39.6421 287.878 48.1654 306.586 48.1654" fill="#F6F6FF"/>
<path fill-rule="evenodd" clip-rule="evenodd" d="M338.594 20.4549C338.594 30.3891 324.264 38.443 306.586 38.443C288.908 38.443 274.577 30.3891 274.577 20.4549C274.577 10.52 288.908 2.46684 306.586 2.46684C324.264 2.46684 338.594 10.52 338.594 20.4549" fill="white"/>
<path fill-rule="evenodd" clip-rule="evenodd" d="M306.586 2.67647C289.056 2.67647 274.794 10.6515 274.794 20.4548C274.794 30.2581 289.056 38.2325 306.586 38.2325C324.117 38.2325 338.378 30.2581 338.378 20.4548C338.378 10.6515 324.117 2.67647 306.586 2.67647M306.586 38.6512C288.817 38.6512 274.361 30.489 274.361 20.4548C274.361 10.4207 288.817 2.25777 306.586 2.25777C324.355 2.25777 338.811 10.4207 338.811 20.4548C338.811 30.489 324.355 38.6512 306.586 38.6512" fill="#F7F7F7"/>
<path fill-rule="evenodd" clip-rule="evenodd" d="M304.417 31.1506H311.555C311.734 31.1506 311.905 31.1879 312.059 31.2541C312.059 31.24 312.062 31.2259 312.062 31.2119C312.062 30.5398 311.5 29.9945 310.807 29.9945H303.668C302.974 29.9945 302.412 30.5398 302.412 31.2119C302.412 31.7115 302.722 32.1386 303.164 32.3272C303.187 31.6749 303.737 31.1506 304.417 31.1506" fill="#DADEE0"/>
<path fill-rule="evenodd" clip-rule="evenodd" d="M310.806 32.4303C311.486 32.4303 312.036 31.9067 312.059 31.2544C311.905 31.1882 311.734 31.1509 311.555 31.1509H304.417C303.738 31.1509 303.187 31.6745 303.165 32.3275C303.319 32.393 303.489 32.4303 303.668 32.4303H310.806Z" fill="#E8E8E8"/>
<defs>
<linearGradient id="paint0_linear" x1="669.208" y1="662.077" x2="669.208" y2="127.962" gradientUnits="userSpaceOnUse">
<stop stop-color="white"/>
<stop offset="1" stop-color="#DDDDFF"/>
</linearGradient>
</defs>
</svg>
